<?xml version="1.0" encoding="utf-8"?>
<!-- Generator: Adobe Illustrator 22.1.0, SVG Export Plug-In . SVG Version: 6.00 Build 0)  -->
<svg version="1.1" id="Capa_1" xmlns="http://www.w3.org/2000/svg" xmlns:xlink="http://www.w3.org/1999/xlink" x="0px" y="0px"
	 viewBox="0 0 280 50" style="enable-background:new 0 0 280 50;" xml:space="preserve">
<style type="text/css">
	.st0{fill:#414042;}
	.st1{fill:#31A464;}
	.st2{fill:#1C1F29;}
</style>
<g>
	<g>
		<path d="M27.4,41.3c-5,0-7.6-2.5-7.6-7.3c0-1.9,0.7-3.8,1.9-5.2c0.9-1.1,2.6-2.4,5.2-2.4c4.3,0,5.9,3,5.9,5.6c0,0.5,0,0.8-0.1,1
			c-0.1,0.4-1.1,0.9-2.6,1.3c-0.5,0.1-2.5,0.2-4.1,0.2c-0.7,0-1.3,0-1.7,0H24v0.2c0.1,0.9,0.6,3.7,4.5,3.7c1.5,0,2.9-0.4,3.6-0.7
			c-0.1,1.5-1.3,2.9-1.9,3.2C29.9,41,28.5,41.3,27.4,41.3z M26.6,28.6c-1.2,0-2.4,1.1-2.5,3.5v0.1h0.1c0.4,0,1,0.1,1.8,0.1l0,0
			c0.9,0,1.8,0,2.3-0.1l0,0c0.3,0,0.5-0.5,0.5-0.9C28.9,29.6,28,28.6,26.6,28.6z"/>
		<path d="M34.6,41.1c0.1-1.9,0.1-3.9,0.1-5.8v-5.6c0-0.7-0.3-1.3-0.8-1.6v0c0.3-0.7,1.6-1.8,2.6-1.8c1.4,0,2.1,1.1,2.2,3.3l0.3,0.1
			c0.9-2.2,2.3-3.4,4-3.4c0.7,0,1.4,0.3,1.7,0.7c0,0.7-0.3,2.2-1,3.1c-0.2,0.3-0.5,0.4-0.8,0.4c-0.1,0-0.2,0-0.3,0
			c-0.5-0.2-0.9-0.2-1.4-0.2c-0.6,0-1.5,0.4-2,1.6c-0.2,0.5-0.3,0.9-0.3,1.6v6.7c0,0.4,0,0.7-0.6,0.7C37.1,41.1,36,41.1,34.6,41.1z"
			/>
		<path d="M45.8,41.1c0.1-1.9,0.1-3.9,0.1-5.8v-5.6c0-0.7-0.3-1.3-0.8-1.6v0c0.3-0.7,1.6-1.8,2.6-1.8c1.4,0,2.1,1.1,2.2,3.3l0.3,0.1
			c0.9-2.2,2.3-3.4,4-3.4c0.7,0,1.4,0.3,1.7,0.7c0,0.7-0.3,2.2-1,3.1c-0.2,0.3-0.5,0.4-0.8,0.4c-0.1,0-0.2,0-0.3,0
			c-0.5-0.2-0.9-0.2-1.4-0.2c-0.6,0-1.5,0.4-2,1.6c-0.2,0.5-0.3,0.9-0.3,1.6v6.7c0,0.4,0,0.7-0.7,0.7C48.3,41.1,47.2,41.1,45.8,41.1
			z"/>
		<path d="M66.8,41.3c-1.3,0-2.2-0.6-2.8-1.6l-0.1-0.2l-0.1,0.2c-0.8,0.8-2.1,1.7-3.6,1.7c-2,0-4.1-1.5-4.1-4.1c0-3,3.2-4,6.2-4.6
			c0.6-0.1,1.2-0.3,1.7-0.3l0.1,0v-0.5c0-1.5-1-2.4-2.6-2.4c-1.2,0-2.5,0.6-3,0.8c-0.2,0-0.4,0.1-0.5,0.1c-0.3,0-0.6-0.1-0.8-0.3
			c-0.3-0.3-0.5-0.9-0.5-1.5c1.5-1,3.8-2.1,6.1-2.1c2.7,0,5.5,1.7,5.5,5.4c0,0.6,0,1.3,0,2.2c0,1.1-0.1,2.3-0.1,3.5
			c0,0.4,0.5,0.9,1.4,0.9c0.1,0,0.3,0,0.4,0C69.7,40.3,68.7,41.3,66.8,41.3z M63.7,34.3C60.4,34.6,60,36,60,36.6
			c0,1.2,0.8,1.9,2.1,1.9c0.7,0,1.1-0.1,1.5-0.5l0,0l0,0c0.3-0.3,0.3-0.7,0.3-1.3v-2.4L63.7,34.3z"/>
		<path d="M71.8,41.1c-0.3,0-0.4,0-0.4-0.4c0.1-3.5,0.1-7.5,0.1-11.3v-0.2h-0.1c-1.6-0.1-1.8-0.7-1.9-1.2c0.6-0.6,1.1-0.9,1.9-1.4
			l0.1,0v-0.1c0-2.8,0.7-4.7,2.3-6.2c1.5-1.4,3.1-1.6,4.2-1.6c1,0,1.8,0.3,2.3,0.7c0.1,0.5-0.1,1.2-0.5,1.8
			c-0.3,0.3-0.6,0.5-0.9,0.5l0,0c-0.2,0-0.6-0.1-0.8-0.1c-0.6,0-1,0.2-1.4,0.5c-0.7,0.7-1,2.1-0.9,4.4v0.1H76c0.8,0,2.7,0,3.6,0
			c-0.1,1.2-0.7,1.9-1,2.1c-0.4,0.3-1.4,0.4-2.7,0.4h-0.2v0.2c0,1.3,0,4.1,0.1,6.6c0,2,0.1,3.9,0.1,4.8C74.6,41,72.3,41.1,71.8,41.1
			z"/>
		<path d="M86.3,41.3c-5,0-7.6-2.5-7.6-7.3c0-1.9,0.7-3.8,1.9-5.2c0.9-1.1,2.6-2.4,5.2-2.4c4.3,0,5.9,3,5.9,5.6c0,0.5,0,0.8-0.1,1
			c-0.1,0.4-1.1,0.9-2.6,1.3c-0.5,0.1-2.5,0.2-4.1,0.2c-0.7,0-1.3,0-1.7,0H83l0,0.2c0.1,0.9,0.6,3.7,4.5,3.7c1.5,0,2.9-0.4,3.7-0.7
			c-0.1,1.5-1.3,2.9-1.9,3.2C88.9,41,87.5,41.3,86.3,41.3z M85.6,28.6c-1.2,0-2.4,1.1-2.5,3.5v0.1h0.1c0.4,0,1,0.1,1.8,0.1l0,0
			c0.9,0,1.8,0,2.3-0.1l0,0c0.3,0,0.5-0.5,0.5-0.9C87.8,29.6,87,28.6,85.6,28.6z"/>
		<path d="M93.6,41.1c0.1-1.9,0.1-3.9,0.1-5.8v-5.6c0-0.7-0.3-1.3-0.8-1.6v0c0.3-0.7,1.6-1.8,2.6-1.8c1.4,0,2.1,1.1,2.2,3.3l0.3,0.1
			c0.9-2.2,2.3-3.4,4-3.4c0.7,0,1.4,0.3,1.7,0.7c0,0.7-0.3,2.2-1,3.1c-0.2,0.3-0.5,0.4-0.8,0.4c-0.1,0-0.2,0-0.3,0
			c-0.5-0.2-0.9-0.2-1.4-0.2c-0.6,0-1.5,0.4-2,1.6C98,32.4,98,32.7,98,33.5v6.7c0,0.4,0,0.7-0.7,0.7C96,41.1,95,41.1,93.6,41.1z"/>
		<path d="M110.6,41.3c-3.9,0-4.5-2.7-4.5-4.3v-7.7h-0.2c-1.2,0-1.8-0.6-1.9-0.8c0.6-1.1,3.4-3.6,4.1-4.1c0.6-0.4,1.2-0.9,2.5-1
			c-0.1,0.9-0.2,2.2-0.2,3.2v0.2h4.7c-0.4,2.3-1,2.3-1.7,2.4c-0.6,0.1-2.1,0.1-2.9,0.1h-0.1v0.1c-0.1,2.5-0.1,5.5,0,6.8
			c0.1,1.4,1,2.2,2.3,2.2c0.9,0,1.8-0.3,2.2-0.5c0.1,0.8-0.1,1.8-0.6,2.2C113.6,40.9,112.2,41.3,110.6,41.3z"/>
		<path d="M116.4,40.3c0-1.2,0.1-2.7,0.1-4.3v-5.6c0-2-0.1-3-0.1-3.5c0.9-0.2,3.1-0.4,3.9-0.4c0.4,0,0.5,0,0.5,1.9v11.9
			c0,0.4-0.1,0.6-1,0.7c-0.6,0.1-1.8,0.1-3.4,0.1C116.4,40.9,116.4,40.6,116.4,40.3z M118.6,23.9c-0.4,0-2.2-0.1-2.2-2.2
			c0-1.7,1.4-2.3,2.3-2.3c1.3,0,2.1,0.9,2.1,2.2C120.9,22.9,119.9,23.9,118.6,23.9z"/>
		<path d="M123.8,41.2c-0.3,0-0.3,0-0.3-0.3v-18c0-1.8-0.1-2.6-0.1-3.3c0.7-0.3,3.1-0.6,3.9-0.6c0.4,0,0.5,0,0.5,2v15.8
			c0,1.5,0.1,3.2,0.1,4.2C127,41.1,124.2,41.2,123.8,41.2z"/>
		<path d="M13.6,41.1c-0.4,0-0.8,0-0.8-0.6V25.8c0-2.3-0.5-2.5-1.2-2.5c0,0-2.2,0-3,0c-0.9,0-3,0.1-3.6,0.3c0.1-2.1,1.5-3.4,2.1-3.7
			c0.2-0.1,1.3-0.1,2-0.1c0.9,0,3.7-0.1,3.7-0.1c1.4,0.1,2.5,0,2.9,1.1l0.1,0.2L16,21c1.4-1,2.3-1,3.5-1.1c0.3,0,0.5,0,0.8,0
			c0.1,0,0.6,0,0.8,0c0.4,0,2.6,0,2.9,0c1.5,0,2.6,0,3.2-0.2c0,1.9-1.3,3.2-2.3,3.6c-0.3,0.1-4.9,0.1-5.1,0.1
			c-0.6,0-2.5,0.3-2.7,2.7c0,0.6,0,8.2,0,9.7v0c0,2,0,4.1,0.1,4.9v0.1l-0.1,0C16.2,41,15,41.1,13.6,41.1z"/>
	</g>
	<g>
		<path class="st0" d="M131.6,21.1h1c0.2,0,0.3,0,0.4,0.1c0.2,0.1,0.3,0.3,0.3,0.5c0,0.1,0,0.2-0.1,0.3c0,0.1-0.1,0.1-0.2,0.2
			c0.1,0,0.1,0.1,0.2,0.1c0,0.1,0.1,0.1,0.1,0.3v0.3c0,0.1,0,0.1,0,0.2c0,0.1,0,0.1,0.1,0.1v0h-0.4c0,0,0,0,0-0.1s0-0.1,0-0.2v-0.4
			c0-0.1-0.1-0.2-0.1-0.3c0,0-0.1,0-0.3,0H132v0.9h-0.3V21.1z M132.6,22c0.1,0,0.2,0,0.3-0.1c0.1-0.1,0.1-0.1,0.1-0.3
			c0-0.1-0.1-0.3-0.1-0.3c-0.1,0-0.1,0-0.2,0H132v0.7L132.6,22L132.6,22z"/>
	</g>
	<g>
		<path d="M132.4,24.4c-1.3,0-2.3-1-2.3-2.3c0-1.3,1-2.3,2.3-2.3c1.3,0,2.3,1,2.3,2.3C134.7,23.4,133.7,24.4,132.4,24.4z
			 M132.4,20.1c-1.1,0-2.1,0.9-2.1,2c0,1.1,0.9,2,2.1,2c1.2,0,2.1-0.9,2.1-2C134.5,21,133.6,20.1,132.4,20.1z"/>
	</g>
	<g>
		<path class="st1" d="M101,15.4c-0.5,0-0.9,0-1,0c-2,0.1-4.3,1.2-6.2,3.1L93.2,19l0.1-0.7c0.1-0.9,0-1.6-0.4-2.1
			c-0.4-0.5-1-0.7-1.9-0.8c-0.1,0-0.7,0-1,0c-1.2,0.1-1.5,0.2-2.2,0.4c-0.1,0-0.3,0.1-0.4,0.1c-0.2,1.1-0.3,2.2-0.2,3.6
			c8.2,4.8,13.6,0.6,16.9-4.2C103.3,15.3,102.2,15.4,101,15.4z"/>
		<path class="st1" d="M93.3,12.5c2.3,0.3,1.7,2.6,1.7,2.6c1.3-2.1,4-3.1,6.3-3.2c0.2,0,2.9-0.1,4.6-0.1c1.5-2.8,1.9-4.6,1.9-4.6
			S94,4.2,88.9,11.7c-0.1,0.2-0.3,0.4-0.4,0.7C91.5,12.2,93.3,12.5,93.3,12.5z"/>
	</g>
</g>
<g>
	<g>
		<path class="st2" d="M158.3,24.5c3.5,0,5.7,1.8,6.9,3.8l-3.5,1.9c-0.7-1.1-1.9-1.9-3.4-1.9c-2.6,0-4.5,2.1-4.5,4.7
			c0,2.6,1.9,4.7,4.5,4.7c1.3,0,2.4-0.4,3.1-1v-1.4h-3.7v-3.5h7.9v6.4c-1.8,1.9-4.1,3.2-7.2,3.2c-4.8,0-8.8-3.2-8.8-8.4
			C149.5,27.8,153.5,24.5,158.3,24.5z"/>
		<path class="st2" d="M174.3,35.6h-2.2v5.5H168V24.8h8.1c3.6,0,5.7,2.4,5.7,5.4c0,2.8-1.7,4.3-3.2,4.9l3.3,6H177L174.3,35.6z
			 M175.5,28.3h-3.3V32h3.3c1.1,0,2-0.7,2-1.8C177.5,29,176.6,28.3,175.5,28.3z"/>
		<path class="st2" d="M191.7,24.5c5,0,8.7,3.5,8.7,8.4c0,5-3.7,8.4-8.7,8.4c-5,0-8.7-3.5-8.7-8.4C183,28,186.7,24.5,191.7,24.5z
			 M191.7,28.3c-2.7,0-4.4,2.1-4.4,4.7s1.7,4.7,4.4,4.7c2.7,0,4.4-2.1,4.4-4.7C196.1,30.3,194.4,28.3,191.7,28.3z"/>
		<path class="st2" d="M211.3,30.9l-2.5,10.2h-4.4l-4.6-16.3h4.7l2.5,10.9l2.8-10.9h3.2l2.8,10.9l2.4-10.9h4.7l-4.7,16.3h-4.4
			L211.3,30.9z"/>
		<path class="st2" d="M238.3,30.1l-4.1,11h-1.9l-4.1-11v11h-4.2V24.8h5.8l3.4,9.2l3.4-9.2h5.8v16.3h-4.2L238.3,30.1L238.3,30.1z"/>
		<path class="st2" d="M245.4,24.8h4.2v16.3h-4.2V24.8z"/>
		<path class="st2" d="M265.6,31.4c1.6-1.6,2.2-4.9,2.2-4.9l0,0c0.3-1.3,0.3-2,0.3-2s-2.5,0.3-5.1,1.3l-0.4,0.1
			c-0.8,0.3-1.6,0.7-2.2,1.3l0,0c-0.6,0.5-1,1.1-1.3,1.8c0,0,0,0,0,0.1c0,0.1,0,0.1,0,0.2l-2.1-3.6c0,0-0.3-0.4-0.9-0.7
			c-0.4-0.2-1.2-0.2-1.2-0.2h-3.4l5.4,8c-1.3,0.2-2.2,0.9-3,1.8c-1.6,1.5-2.4,4.8-2.4,4.8l0,0c-0.3,1.3-0.4,2-0.4,2s2.1-0.2,4.5-0.9
			l0.4-0.1c1-0.3,1.9-0.8,2.6-1.4l0,0c0.7-0.5,1.1-1.1,1.3-1.8c0,0,0,0,0-0.1c0.1-0.1,0.1-0.3,0.1-0.4c0,0,0,0,0,0c0,0,0,0,0-0.1
			l2.3,3.5c0,0,0.3,0.6,1,0.7c0.5,0.1,2.1,0.1,2.1,0.1h2.5l-5.3-7.9C264.1,32.7,264.8,32.3,265.6,31.4z"/>
	</g>
	<g>
		<g>
			<path class="st2" d="M271.7,28.3c-1.1,0-2-0.9-2-1.9c0-1,0.9-1.9,2-1.9c1.1,0,2,0.9,2,1.9C273.7,27.4,272.8,28.3,271.7,28.3z
				 M271.7,24.8c-0.9,0-1.6,0.7-1.6,1.6c0,0.9,0.7,1.6,1.6,1.6c0.9,0,1.6-0.7,1.6-1.6C273.4,25.5,272.6,24.8,271.7,24.8z"/>
		</g>
		<g>
			<g>
				<path class="st2" d="M270.9,25.2c0.2,0,0.4,0,0.7,0c0.4,0,0.6,0.1,0.8,0.2c0.1,0.1,0.2,0.3,0.2,0.4c0,0.3-0.2,0.5-0.5,0.6l0,0
					c0.2,0.1,0.3,0.2,0.4,0.5c0.1,0.3,0.1,0.6,0.2,0.7h-0.4c0-0.1-0.1-0.3-0.2-0.6c-0.1-0.3-0.2-0.4-0.5-0.5h-0.3v1h-0.3L270.9,25.2
					L270.9,25.2z M271.3,26.2h0.3c0.4,0,0.6-0.2,0.6-0.4c0-0.3-0.3-0.4-0.6-0.4c-0.1,0-0.3,0-0.3,0L271.3,26.2L271.3,26.2z"/>
			</g>
		</g>
	</g>
</g>
</svg>
